<svg width="183" height="44" viewBox="0 0 183 44" fill="none" xmlns="http://www.w3.org/2000/svg">
<path d="M37.0716 29.7528C36.8752 26.4506 33.4195 29.0285 32.3024 30.3666C30.9214 32.0238 30.5408 34.3501 30.7249 36.4493C31.1976 41.6911 34.7453 38.3827 35.8624 35.3506C36.5192 33.5644 37.1882 31.6862 37.0716 29.7528Z" fill="#0F1D2D" stroke="#0F1D2D" stroke-width="0.676871" stroke-miterlimit="10"/>
<path d="M42.8228 19.7417C42.9946 14.5919 39.0602 9.40538 34.1069 8.93889C25.8207 8.15937 22.9788 13.4626 20.2965 21.3989C19.382 24.1119 17.3871 25.9165 15.0793 25.5113C13.821 25.2904 11.2308 23.2219 12.1638 22.1355C14.8951 20.8465 16.2578 17.4768 16.2455 14.6472C16.2393 13.5055 15.9816 10.6943 15.1407 11.5168C14.4471 12.1981 14.2507 12.8119 13.244 13.4012C11.2737 14.5551 9.70243 15.5617 8.94133 17.7775C8.05746 15.4513 5.23401 15.7397 3.75477 14.0641C1.33028 11.3204 0.882206 11.8115 1.02338 14.8313C1.17683 18.2624 3.13483 21.712 6.39408 23.0132C6.64574 28.9118 9.00271 34.9699 14.9872 37.4926C27.3552 42.7099 42.3502 34.0861 42.8228 19.7417Z" fill="#0F1D2D" stroke="#0F1D2D" stroke-width="0.676871" stroke-miterlimit="10"/>
<path d="M38.2247 10.6206C37.9424 10.6145 37.169 11.2467 36.8682 11.7562C36.5675 12.2718 36.4999 12.996 36.8682 13.5669C37.2304 14.1377 37.881 14.4262 38.2922 14.3525C38.9428 14.2298 39.3848 13.5546 39.4891 13.3704C39.5996 13.1802 39.6303 12.9531 39.5873 12.6891C39.5444 12.4252 39.3418 11.8667 39.1454 11.5782C38.9551 11.2897 38.6973 10.9521 38.5377 10.8539C38.3782 10.7557 38.3536 10.6268 38.2247 10.6206Z" fill="#0F1D2D" stroke="#0F1D2D" stroke-width="0.676871" stroke-miterlimit="10"/>
<path d="M38.9491 9.58958C38.7589 9.53434 38.3231 10.0131 38.1205 10.4305C37.918 10.854 37.8811 11.5108 38.1389 12.1061C38.3906 12.6954 38.8387 13.0759 39.121 13.0759C39.5691 13.0698 39.8576 12.5297 39.9312 12.3762C40.0049 12.2228 40.0233 12.0141 39.9926 11.7624C39.9619 11.5169 39.8146 10.9583 39.6796 10.6576C39.5445 10.3568 39.3665 10.0008 39.256 9.8842C39.1456 9.76758 39.0412 9.61413 38.9491 9.58958Z" fill="#0F1D2D" stroke="#0F1D2D" stroke-width="0.676871" stroke-miterlimit="10"/>
<path d="M39.9926 8.4049C39.8146 8.33124 39.3726 8.75476 39.1517 9.14759C38.9307 9.54042 38.8509 10.1726 39.0473 10.7619C39.2437 11.3511 39.6366 11.7562 39.9005 11.7746C40.3179 11.8115 40.6371 11.3081 40.7107 11.167C40.7905 11.0258 40.8212 10.8232 40.8089 10.5839C40.7967 10.3445 40.6984 9.79821 40.5941 9.49745C40.4898 9.19669 40.3486 8.84069 40.2504 8.71793C40.1644 8.58904 40.0724 8.43559 39.9926 8.4049Z" fill="#0F1D2D" stroke="#0F1D2D" stroke-width="0.676871" stroke-miterlimit="10"/>
<path d="M40.8951 7.34313C40.7355 7.26947 40.312 7.63161 40.0971 7.97534C39.8762 8.31906 39.7718 8.89603 39.9191 9.44844C40.0664 10.0009 40.3979 10.3937 40.6373 10.4244C41.0117 10.4796 41.3247 10.0377 41.4045 9.91493C41.4843 9.78603 41.5211 9.60803 41.5273 9.38706C41.5273 9.1661 41.472 8.66279 41.3922 8.38044C41.3124 8.09809 41.202 7.76665 41.1222 7.64389C41.0424 7.52113 40.9687 7.37382 40.8951 7.34313Z" fill="#0F1D2D" stroke="#0F1D2D" stroke-width="0.676871" stroke-miterlimit="10"/>
<path d="M41.7055 6.10318C41.5459 6.13387 41.0856 6.50215 40.883 6.82746C40.6804 7.14663 40.5761 7.68677 40.7173 8.20236C40.8523 8.71794 41.1715 9.08008 41.3925 9.11077C41.7423 9.15988 42.0369 8.74863 42.1106 8.63201C42.1842 8.51539 42.3254 8.06118 42.3438 7.85249C42.3684 7.57015 42.4175 7.37373 42.3438 7.1098C42.2702 6.84587 42.1842 6.22594 42.1106 6.11545C42.0308 6.01111 41.8467 6.07249 41.7055 6.10318Z" fill="#0F1D2D" stroke="#0F1D2D" stroke-width="0.676871" stroke-miterlimit="10"/>
<path d="M42.7548 4.88162C42.6136 4.79569 42.1533 5.07804 41.8955 5.37266C41.6377 5.66728 41.4597 6.18287 41.5334 6.71073C41.607 7.23859 41.8832 7.6437 42.1103 7.69894C42.4725 7.79715 42.8285 7.42273 42.9205 7.31839C43.0126 7.20791 43.074 7.04832 43.1047 6.83963C43.1354 6.63708 43.1415 6.15832 43.0985 5.88825C43.0556 5.61818 42.9942 5.29287 42.9328 5.17624C42.8714 5.06576 42.8162 4.92459 42.7548 4.88162Z" fill="#0F1D2D" stroke="#0F1D2D" stroke-width="0.676871" stroke-miterlimit="10"/>
<path d="M43.3685 3.99179C43.2519 3.91814 42.8775 4.16365 42.6627 4.41531C42.454 4.66696 42.3067 5.11503 42.3681 5.56924C42.4294 6.02345 42.6565 6.37331 42.8407 6.42242C43.1353 6.50221 43.4299 6.18917 43.5036 6.09097C43.5772 5.99276 43.6325 5.85773 43.657 5.67973C43.6816 5.50173 43.6877 5.09048 43.6509 4.86338C43.6202 4.63014 43.565 4.35393 43.5158 4.24958C43.4667 4.14524 43.4238 4.02248 43.3685 3.99179Z" fill="#0F1D2D" stroke="#0F1D2D" stroke-width="0.676871" stroke-miterlimit="10"/>
<path d="M43.9762 3.1691C43.8719 3.10158 43.5343 3.32255 43.3502 3.54351C43.166 3.76448 43.031 4.16958 43.0862 4.57469C43.1415 4.97979 43.344 5.28669 43.5097 5.33579C43.7737 5.40945 44.0376 5.1271 44.1051 5.04117C44.1726 4.95524 44.2156 4.83248 44.2402 4.67289C44.2647 4.51331 44.2647 4.15117 44.234 3.94248C44.2033 3.73379 44.1604 3.48827 44.1113 3.3962C44.0622 3.30413 44.0253 3.19979 43.9762 3.1691Z" fill="#0F1D2D" stroke="#0F1D2D" stroke-width="0.676871" stroke-miterlimit="10"/>
<path d="M44.7926 2.31589C44.7067 2.2361 44.3691 2.38954 44.1666 2.56141C43.964 2.73941 43.786 3.08313 43.7737 3.45755C43.7615 3.8381 43.8965 4.145 44.0438 4.21251C44.2709 4.31686 44.5532 4.10203 44.6269 4.03451C44.7006 3.967 44.7619 3.86265 44.8049 3.72148C44.8479 3.58031 44.9092 3.24886 44.9092 3.05858C44.9154 2.8683 44.9092 2.63506 44.8786 2.54299C44.8479 2.45092 44.8295 2.35272 44.7926 2.31589Z" fill="#0F1D2D" stroke="#0F1D2D" stroke-width="0.676871" stroke-miterlimit="10"/>
<path d="M45.3571 1.67153C45.2896 1.60402 45.0011 1.70222 44.8169 1.83726C44.6328 1.97229 44.4609 2.24236 44.4302 2.56153C44.3934 2.87457 44.4916 3.14464 44.6021 3.21216C44.7862 3.3165 45.0318 3.15078 45.0993 3.10167C45.1668 3.05257 45.222 2.96664 45.2711 2.85616C45.3141 2.73954 45.3878 2.46947 45.4062 2.30988C45.4246 2.15029 45.4307 1.95388 45.4185 1.88022C45.3939 1.78815 45.3878 1.70222 45.3571 1.67153Z" fill="#0F1D2D" stroke="#0F1D2D" stroke-width="0.676871" stroke-miterlimit="10"/>
<path d="M45.8975 1.02095C45.8484 0.965708 45.7256 1.02709 45.5722 1.11916C45.4249 1.21736 45.2714 1.30943 45.0505 1.64702C44.9154 1.85571 45.0689 2.10737 45.1548 2.16261C45.296 2.25468 45.4985 2.13806 45.5476 2.10123C45.6029 2.0644 45.6827 2.00916 45.7256 1.91709C45.7686 1.82502 45.8361 1.62247 45.8607 1.49971C45.8914 1.35854 45.9098 1.3033 45.9159 1.24192C45.9405 1.14985 45.9221 1.0455 45.8975 1.02095Z" fill="#0F1D2D" stroke="#0F1D2D" stroke-width="0.676871" stroke-miterlimit="10"/>
<path d="M71.7887 33.5237H68.1487L59.9067 21.0697V33.5237H56.2667V15.3497H59.9067L68.1487 27.8297V15.3497H71.7887V33.5237ZM74.4498 26.2697C74.4498 24.8137 74.7358 23.5223 75.3078 22.3957C75.8971 21.269 76.6858 20.4023 77.6738 19.7957C78.6791 19.189 79.7971 18.8857 81.0278 18.8857C82.1025 18.8857 83.0385 19.1023 83.8358 19.5357C84.6505 19.969 85.3005 20.515 85.7858 21.1737V19.1197H89.4518V33.5237H85.7858V31.4177C85.3178 32.0937 84.6678 32.657 83.8358 33.1077C83.0211 33.541 82.0765 33.7577 81.0018 33.7577C79.7885 33.7577 78.6791 33.4457 77.6738 32.8217C76.6858 32.1977 75.8971 31.3223 75.3078 30.1957C74.7358 29.0517 74.4498 27.743 74.4498 26.2697ZM85.7858 26.3217C85.7858 25.4377 85.6125 24.6837 85.2658 24.0597C84.9191 23.4183 84.4511 22.933 83.8618 22.6037C83.2725 22.257 82.6398 22.0837 81.9638 22.0837C81.2878 22.0837 80.6638 22.2483 80.0918 22.5777C79.5198 22.907 79.0518 23.3923 78.6878 24.0337C78.3411 24.6577 78.1678 25.403 78.1678 26.2697C78.1678 27.1363 78.3411 27.899 78.6878 28.5577C79.0518 29.199 79.5198 29.693 80.0918 30.0397C80.6811 30.3863 81.3051 30.5597 81.9638 30.5597C82.6398 30.5597 83.2725 30.395 83.8618 30.0657C84.4511 29.719 84.9191 29.2337 85.2658 28.6097C85.6125 27.9683 85.7858 27.2057 85.7858 26.3217ZM96.6469 21.3557C97.1149 20.593 97.7216 19.995 98.4669 19.5617C99.2296 19.1283 100.096 18.9117 101.067 18.9117V22.7337H100.105C98.9609 22.7337 98.0942 23.0023 97.5049 23.5397C96.9329 24.077 96.6469 25.013 96.6469 26.3477V33.5237H93.0069V19.1197H96.6469V21.3557ZM123.487 19.1197L119.275 33.5237H115.349L112.723 23.4617L110.097 33.5237H106.145L101.907 19.1197H105.599L108.147 30.0917L110.903 19.1197H114.751L117.455 30.0657L120.003 19.1197H123.487ZM133.568 18.9117C134.66 18.9117 135.631 19.1543 136.48 19.6397C137.329 20.1077 137.988 20.8097 138.456 21.7457C138.941 22.6643 139.184 23.7737 139.184 25.0737V33.5237H135.544V25.5677C135.544 24.4237 135.258 23.5483 134.686 22.9417C134.114 22.3177 133.334 22.0057 132.346 22.0057C131.341 22.0057 130.543 22.3177 129.954 22.9417C129.382 23.5483 129.096 24.4237 129.096 25.5677V33.5237H125.456V14.2837H129.096V20.9137C129.564 20.2897 130.188 19.8043 130.968 19.4577C131.748 19.0937 132.615 18.9117 133.568 18.9117ZM141.71 26.2697C141.71 24.8137 141.996 23.5223 142.568 22.3957C143.157 21.269 143.946 20.4023 144.934 19.7957C145.939 19.189 147.057 18.8857 148.288 18.8857C149.362 18.8857 150.298 19.1023 151.096 19.5357C151.91 19.969 152.56 20.515 153.046 21.1737V19.1197H156.712V33.5237H153.046V31.4177C152.578 32.0937 151.928 32.657 151.096 33.1077C150.281 33.541 149.336 33.7577 148.262 33.7577C147.048 33.7577 145.939 33.4457 144.934 32.8217C143.946 32.1977 143.157 31.3223 142.568 30.1957C141.996 29.0517 141.71 27.743 141.71 26.2697ZM153.046 26.3217C153.046 25.4377 152.872 24.6837 152.526 24.0597C152.179 23.4183 151.711 22.933 151.122 22.6037C150.532 22.257 149.9 22.0837 149.224 22.0837C148.548 22.0837 147.924 22.2483 147.352 22.5777C146.78 22.907 146.312 23.3923 145.948 24.0337C145.601 24.6577 145.428 25.403 145.428 26.2697C145.428 27.1363 145.601 27.899 145.948 28.5577C146.312 29.199 146.78 29.693 147.352 30.0397C147.941 30.3863 148.565 30.5597 149.224 30.5597C149.9 30.5597 150.532 30.395 151.122 30.0657C151.711 29.719 152.179 29.2337 152.526 28.6097C152.872 27.9683 153.046 27.2057 153.046 26.3217ZM163.907 14.2837V33.5237H160.267V14.2837H163.907ZM180.893 26.0097C180.893 26.5297 180.858 26.9977 180.789 27.4137H170.259C170.346 28.4537 170.71 29.2683 171.351 29.8577C171.992 30.447 172.781 30.7417 173.717 30.7417C175.069 30.7417 176.031 30.161 176.603 28.9997H180.529C180.113 30.3863 179.316 31.5303 178.137 32.4317C176.958 33.3157 175.511 33.7577 173.795 33.7577C172.408 33.7577 171.16 33.4543 170.051 32.8477C168.959 32.2237 168.101 31.3483 167.477 30.2217C166.87 29.095 166.567 27.795 166.567 26.3217C166.567 24.831 166.87 23.5223 167.477 22.3957C168.084 21.269 168.933 20.4023 170.025 19.7957C171.117 19.189 172.374 18.8857 173.795 18.8857C175.164 18.8857 176.386 19.1803 177.461 19.7697C178.553 20.359 179.394 21.1997 179.983 22.2917C180.59 23.3663 180.893 24.6057 180.893 26.0097ZM177.123 24.9697C177.106 24.0337 176.768 23.2883 176.109 22.7337C175.45 22.1617 174.644 21.8757 173.691 21.8757C172.79 21.8757 172.027 22.153 171.403 22.7077C170.796 23.245 170.424 23.999 170.285 24.9697H177.123Z" fill="#0F1D2D"/>
</svg>
