<svg width="167" height="43" viewBox="0 0 167 43" fill="none" xmlns="http://www.w3.org/2000/svg">
<path d="M37.3167 29.2291C37.1203 25.9269 33.6646 28.5048 32.5475 29.8429C31.1665 31.5001 30.7859 33.8264 30.9701 35.9256C31.4427 41.1674 34.9904 37.859 36.1075 34.8269C36.7643 33.0408 37.4333 31.1625 37.3167 29.2291Z" fill="#0F1D2D" stroke="#0F1D2D" stroke-width="0.676871" stroke-miterlimit="10"/>
<path d="M43.0679 19.218C43.2398 14.0683 39.3053 8.8817 34.352 8.41521C26.0658 7.63569 23.2239 12.9389 20.5416 20.8752C19.6271 23.5882 17.6323 25.3928 15.3244 24.9877C14.0661 24.7667 11.4759 22.6982 12.4089 21.6118C15.1403 20.3228 16.5029 16.9531 16.4906 14.1235C16.4845 12.9818 16.2267 10.1707 15.3858 10.9931C14.6922 11.6745 14.4958 12.2883 13.4891 12.8775C11.5189 14.0314 9.94755 15.0381 9.18645 17.2539C8.30258 14.9276 5.47913 15.2161 3.99988 13.5404C1.57539 10.7967 1.12732 11.2878 1.2685 14.3076C1.42194 17.7388 3.37995 21.1883 6.6392 22.4895C6.89085 28.3881 9.24783 34.4462 15.2323 36.9689C27.6003 42.1862 42.5953 33.5624 43.0679 19.218Z" fill="#0F1D2D" stroke="#0F1D2D" stroke-width="0.676871" stroke-miterlimit="10"/>
<path d="M38.4703 10.097C38.188 10.0908 37.4146 10.723 37.1138 11.2325C36.8131 11.7481 36.7456 12.4724 37.1138 13.0432C37.476 13.614 38.1266 13.9025 38.5378 13.8288C39.1885 13.7061 39.6304 13.0309 39.7347 12.8468C39.8452 12.6565 39.8759 12.4294 39.8329 12.1655C39.79 11.9015 39.5874 11.343 39.391 11.0545C39.2007 10.766 38.9429 10.4284 38.7834 10.3302C38.6238 10.232 38.5992 10.1031 38.4703 10.097Z" fill="#0F1D2D" stroke="#0F1D2D" stroke-width="0.676871" stroke-miterlimit="10"/>
<path d="M39.1948 9.0659C39.0045 9.01065 38.5687 9.48941 38.3661 9.90679C38.1636 10.3303 38.1267 10.9871 38.3845 11.5825C38.6362 12.1717 39.0843 12.5522 39.3666 12.5522C39.8147 12.5461 40.1032 12.006 40.1768 11.8525C40.2505 11.6991 40.2689 11.4904 40.2382 11.2387C40.2075 10.9932 40.0602 10.4347 39.9252 10.1339C39.7901 9.83314 39.6121 9.47714 39.5016 9.36052C39.3912 9.2439 39.2868 9.09045 39.1948 9.0659Z" fill="#0F1D2D" stroke="#0F1D2D" stroke-width="0.676871" stroke-miterlimit="10"/>
<path d="M40.2382 7.88121C40.0602 7.80756 39.6183 8.23108 39.3973 8.62391C39.1763 9.01674 39.0965 9.64894 39.2929 10.2382C39.4894 10.8274 39.8822 11.2325 40.1461 11.2509C40.5635 11.2878 40.8827 10.7845 40.9563 10.6433C41.0361 10.5021 41.0668 10.2996 41.0545 10.0602C41.0423 9.82081 40.944 9.27453 40.8397 8.97377C40.7354 8.67301 40.5942 8.31701 40.496 8.19425C40.41 8.06535 40.318 7.9119 40.2382 7.88121Z" fill="#0F1D2D" stroke="#0F1D2D" stroke-width="0.676871" stroke-miterlimit="10"/>
<path d="M41.1402 6.81945C40.9806 6.74579 40.5571 7.10793 40.3422 7.45165C40.1213 7.79538 40.0169 8.37235 40.1642 8.92476C40.3115 9.47718 40.643 9.87 40.8824 9.90069C41.2568 9.95594 41.5698 9.514 41.6496 9.39124C41.7294 9.26235 41.7662 9.08435 41.7724 8.86338C41.7724 8.64242 41.7171 8.1391 41.6373 7.85676C41.5576 7.57441 41.4471 7.24296 41.3673 7.1202C41.2875 6.99745 41.2138 6.85013 41.1402 6.81945Z" fill="#0F1D2D" stroke="#0F1D2D" stroke-width="0.676871" stroke-miterlimit="10"/>
<path d="M41.9506 5.5795C41.791 5.61019 41.3307 5.97846 41.1281 6.30378C40.9256 6.62295 40.8212 7.16309 40.9624 7.67867C41.0974 8.19426 41.4166 8.5564 41.6376 8.58709C41.9874 8.63619 42.2821 8.22495 42.3557 8.10833C42.4294 7.99171 42.5705 7.5375 42.5889 7.32881C42.6135 7.04647 42.6626 6.85005 42.5889 6.58612C42.5153 6.32219 42.4294 5.70226 42.3557 5.59177C42.2759 5.48743 42.0918 5.54881 41.9506 5.5795Z" fill="#0F1D2D" stroke="#0F1D2D" stroke-width="0.676871" stroke-miterlimit="10"/>
<path d="M42.9999 4.35819C42.8588 4.27226 42.3984 4.5546 42.1406 4.84922C41.8828 5.14384 41.7048 5.65943 41.7785 6.18729C41.8521 6.71516 42.1283 7.12026 42.3554 7.1755C42.7176 7.27371 43.0736 6.8993 43.1656 6.79495C43.2577 6.68447 43.3191 6.52488 43.3498 6.31619C43.3805 6.11364 43.3866 5.63488 43.3436 5.36481C43.3007 5.09474 43.2393 4.76943 43.1779 4.65281C43.1165 4.54232 43.0613 4.40115 42.9999 4.35819Z" fill="#0F1D2D" stroke="#0F1D2D" stroke-width="0.676871" stroke-miterlimit="10"/>
<path d="M43.6141 3.46811C43.4975 3.39445 43.1231 3.63997 42.9083 3.89163C42.6996 4.14328 42.5523 4.59135 42.6137 5.04556C42.675 5.49977 42.9021 5.84963 43.0863 5.89873C43.3809 5.97853 43.6755 5.66549 43.7492 5.56729C43.8228 5.46908 43.8781 5.33404 43.9026 5.15604C43.9272 4.97804 43.9333 4.5668 43.8965 4.3397C43.8658 4.10646 43.8106 3.83025 43.7615 3.7259C43.7124 3.62156 43.6694 3.4988 43.6141 3.46811Z" fill="#0F1D2D" stroke="#0F1D2D" stroke-width="0.676871" stroke-miterlimit="10"/>
<path d="M44.2213 2.64542C44.117 2.5779 43.7794 2.79887 43.5953 3.01983C43.4111 3.2408 43.2761 3.6459 43.3313 4.05101C43.3866 4.45611 43.5891 4.76301 43.7549 4.81211C44.0188 4.88577 44.2827 4.60342 44.3502 4.51749C44.4178 4.43156 44.4607 4.3088 44.4853 4.14921C44.5098 3.98963 44.5098 3.62749 44.4791 3.4188C44.4485 3.21011 44.4055 2.96459 44.3564 2.87252C44.3073 2.78045 44.2705 2.67611 44.2213 2.64542Z" fill="#0F1D2D" stroke="#0F1D2D" stroke-width="0.676871" stroke-miterlimit="10"/>
<path d="M45.0382 1.79221C44.9523 1.71241 44.6147 1.86586 44.4122 2.03773C44.2096 2.21573 44.0316 2.55945 44.0193 2.93387C44.0071 3.31442 44.1421 3.62132 44.2894 3.68883C44.5165 3.79318 44.7989 3.57835 44.8725 3.51083C44.9462 3.44332 45.0075 3.33897 45.0505 3.1978C45.0935 3.05662 45.1549 2.72518 45.1549 2.5349C45.161 2.34462 45.1549 2.11138 45.1242 2.01931C45.0935 1.92724 45.0751 1.82904 45.0382 1.79221Z" fill="#0F1D2D" stroke="#0F1D2D" stroke-width="0.676871" stroke-miterlimit="10"/>
<path d="M45.6022 1.14785C45.5347 1.08033 45.2462 1.17854 45.062 1.31358C44.8779 1.44861 44.706 1.71868 44.6754 2.03785C44.6385 2.35089 44.7367 2.62096 44.8472 2.68848C45.0314 2.79282 45.2769 2.6271 45.3444 2.57799C45.4119 2.52889 45.4672 2.44296 45.5163 2.33247C45.5592 2.21585 45.6329 1.94578 45.6513 1.7862C45.6697 1.62661 45.6758 1.4302 45.6636 1.35654C45.639 1.26447 45.6329 1.17854 45.6022 1.14785Z" fill="#0F1D2D" stroke="#0F1D2D" stroke-width="0.676871" stroke-miterlimit="10"/>
<path d="M46.1431 0.497268C46.094 0.442026 45.9713 0.503406 45.8178 0.595475C45.6705 0.693682 45.517 0.785751 45.2961 1.12334C45.161 1.33203 45.3145 1.58368 45.4004 1.63893C45.5416 1.73099 45.7441 1.61437 45.7932 1.57755C45.8485 1.54072 45.9283 1.48548 45.9713 1.39341C46.0142 1.30134 46.0817 1.09879 46.1063 0.976028C46.137 0.834855 46.1554 0.779613 46.1615 0.718234C46.1861 0.626165 46.1677 0.521819 46.1431 0.497268Z" fill="#0F1D2D" stroke="#0F1D2D" stroke-width="0.676871" stroke-miterlimit="10"/>
<path d="M72.0338 33H68.3938L60.1518 20.546V33H56.5118V14.826H60.1518L68.3938 27.306V14.826H72.0338V33ZM74.6949 25.746C74.6949 24.29 74.9809 22.9987 75.5529 21.872C76.1422 20.7453 76.9309 19.8787 77.9189 19.272C78.9242 18.6653 80.0422 18.362 81.2729 18.362C82.3476 18.362 83.2836 18.5787 84.0809 19.012C84.8956 19.4453 85.5456 19.9913 86.0309 20.65V18.596H89.6969V33H86.0309V30.894C85.5629 31.57 84.9129 32.1333 84.0809 32.584C83.2662 33.0173 82.3216 33.234 81.2469 33.234C80.0336 33.234 78.9242 32.922 77.9189 32.298C76.9309 31.674 76.1422 30.7987 75.5529 29.672C74.9809 28.528 74.6949 27.2193 74.6949 25.746ZM86.0309 25.798C86.0309 24.914 85.8576 24.16 85.5109 23.536C85.1642 22.8947 84.6962 22.4093 84.1069 22.08C83.5176 21.7333 82.8849 21.56 82.2089 21.56C81.5329 21.56 80.9089 21.7247 80.3369 22.054C79.7649 22.3833 79.2969 22.8687 78.9329 23.51C78.5862 24.134 78.4129 24.8793 78.4129 25.746C78.4129 26.6127 78.5862 27.3753 78.9329 28.034C79.2969 28.6753 79.7649 29.1693 80.3369 29.516C80.9262 29.8627 81.5502 30.036 82.2089 30.036C82.8849 30.036 83.5176 29.8713 84.1069 29.542C84.6962 29.1953 85.1642 28.71 85.5109 28.086C85.8576 27.4447 86.0309 26.682 86.0309 25.798ZM96.892 20.832C97.36 20.0693 97.9667 19.4713 98.712 19.038C99.4747 18.6047 100.341 18.388 101.312 18.388V22.21H100.35C99.206 22.21 98.3393 22.4787 97.75 23.016C97.178 23.5533 96.892 24.4893 96.892 25.824V33H93.252V18.596H96.892V20.832ZM123.732 18.596L119.52 33H115.594L112.968 22.938L110.342 33H106.39L102.152 18.596H105.844L108.392 29.568L111.148 18.596H114.996L117.7 29.542L120.248 18.596H123.732ZM133.813 18.388C134.905 18.388 135.876 18.6307 136.725 19.116C137.575 19.584 138.233 20.286 138.701 21.222C139.187 22.1407 139.429 23.25 139.429 24.55V33H135.789V25.044C135.789 23.9 135.503 23.0247 134.931 22.418C134.359 21.794 133.579 21.482 132.591 21.482C131.586 21.482 130.789 21.794 130.199 22.418C129.627 23.0247 129.341 23.9 129.341 25.044V33H125.701V13.76H129.341V20.39C129.809 19.766 130.433 19.2807 131.213 18.934C131.993 18.57 132.86 18.388 133.813 18.388ZM141.955 25.746C141.955 24.29 142.241 22.9987 142.813 21.872C143.402 20.7453 144.191 19.8787 145.179 19.272C146.184 18.6653 147.302 18.362 148.533 18.362C149.607 18.362 150.543 18.5787 151.341 19.012C152.155 19.4453 152.805 19.9913 153.291 20.65V18.596H156.957V33H153.291V30.894C152.823 31.57 152.173 32.1333 151.341 32.584C150.526 33.0173 149.581 33.234 148.507 33.234C147.293 33.234 146.184 32.922 145.179 32.298C144.191 31.674 143.402 30.7987 142.813 29.672C142.241 28.528 141.955 27.2193 141.955 25.746ZM153.291 25.798C153.291 24.914 153.117 24.16 152.771 23.536C152.424 22.8947 151.956 22.4093 151.367 22.08C150.777 21.7333 150.145 21.56 149.469 21.56C148.793 21.56 148.169 21.7247 147.597 22.054C147.025 22.3833 146.557 22.8687 146.193 23.51C145.846 24.134 145.673 24.8793 145.673 25.746C145.673 26.6127 145.846 27.3753 146.193 28.034C146.557 28.6753 147.025 29.1693 147.597 29.516C148.186 29.8627 148.81 30.036 149.469 30.036C150.145 30.036 150.777 29.8713 151.367 29.542C151.956 29.1953 152.424 28.71 152.771 28.086C153.117 27.4447 153.291 26.682 153.291 25.798ZM164.152 13.76V33H160.512V13.76H164.152Z" fill="#0F1D2D"/>
</svg>
